<?xml version="1.0" encoding="utf-8"?>
<!-- Generator: Adobe Illustrator 16.0.0, SVG Export Plug-In . SVG Version: 6.00 Build 0)  -->
<!DOCTYPE svg PUBLIC "-//W3C//DTD SVG 1.1//EN" "http://www.w3.org/Graphics/SVG/1.1/DTD/svg11.dtd">
<svg version="1.1" xmlns="http://www.w3.org/2000/svg" xmlns:xlink="http://www.w3.org/1999/xlink" x="0px" y="0px"
	 width="340.333px" height="234.83px" viewBox="0 0 340.333 234.83" enable-background="new 0 0 340.333 234.83"
	 xml:space="preserve">
<g id="MapUnderShadow">
	<path fill-opacity="0.4" d="M170.14,234.82l0.03,0.01v-0.01H170.14z"/>
	<polygon fill-opacity="0.4" points="336.35,92.72 336.35,234.82 253.25,224 170.17,234.82 170.14,234.82 87.07,224 3.96,234.83 
		3.96,92.729 87.07,76.339 170.14,92.72 253.25,76.33 	"/>
</g>
<g id="Map_1_">
	<path id="MapOutlines" fill="#F1F2F2" d="M170.167,234.833l-85.083-24.295L0,234.833V24.293L85.084,0l85.083,24.293
		 M170.167,234.833l85.082-24.295l85.084,24.295V24.293L255.25,0l-85.082,24.293"/>
	<path id="Water" fill="#00AEEF" d="M170.167,228.643l-85.083-23.014L3.966,228.643V29.205L85.084,6.192l85.083,23.012
		 M170.167,228.643l85.092-23.014l81.109,23.014V29.205L255.25,6.192l-85.082,23.012"/>
	<path id="SomeContinent2" fill="#00A651" d="M57.494,202.819l-14.259-10.233l0.572-9.062l-3.151-5.627l0.231-3.656l-0.927-1.177
		l1.984-10.249l-1.15-2.948l0.201-3.179l-1.427-1.208l0.221-3.498l1.951-1.791l2.003-10.569l-2.748-6.719l0.292-4.609l-3.892-1.843
		l-6.948-11.613l0.312-4.929l1.229-3.595l-0.858-2.286l1.923-14.566l4.822-4.963l1.213-5.988l-1.739-1.546l-4.45-0.92l-1.161-2.778
		l1.184-5.514l-3.778-6.304l0.191-3.02l-2.45-3.508l0.15-2.385l-0.797-3.243l-3.766-1.195l-5.087-6.706l3.137-15.284l5.021-3.023
		l9.053-2.568l7.284-2.066L85.084,6.192l25.008,6.764l-21.349,1.648l-3.465,1.548l-3.472-0.54l-3.282,1.708l-1.25,3.913
		l-7.549,3.193l-3.438,1.539l-1.117,7.112l-5.74,3.628l-4.553-4.597l0.028-5.746l-1.668-2.659l-12.073-1.881l-6.924,3.873
		l-2.58,3.828l-0.834,7.929l2.516,5.107l5.097,1.28l-0.654,5.067l-3.321,2.344l-0.211,3.339l4.345,5.224l-0.361,5.724l4.537,7.47
		l3.16,0.199l5.469-4.603l7.827,0.334l5.954,3.569l7.979,3.217l4.538,7.47l6.72,2.021l3.045,4.662l3.932,1.205l3.324,8.192
		l-0.398,3.646l1.936,3.733l6.391,1.933l4.843,7.937l9.724,2.051l4.1,6.479l-0.292,4.61l1.931,3.794l-1.703,5.797l-3.401,3.616
		l-11.017,5.211l-2.05,3.382l-2.327,5.121l-6.25,3.756l-5.273-1.132l-5.387,3.326l-4.657-0.296l-4.006,2.621l-2.108,5.612
		l-2.502,1.281l-0.151,2.383l-2.419,1.285l-1.208,3.276l-4.296,3.239l-2.024,1.629l-0.921,6.646l-3.487,2.333l-0.21,3.34l2.546,4.63
		L57.494,202.819z M47.993,41.954l7.751,5.518l4.881,0.708l0.106-1.67l-3.381-3.326l-3.407-1.572l-5.825-1.646L47.993,41.954z
		 M50.267,52.233l3.068,1.671l2.654-0.391l1.742,0.19l0.725,1.761l4.855,1.105l1.961-0.635l1.409,0.169l1.236,2.233l4.075,0.258
		l2.932-2.129l-1.71-2.662l-3.356-0.412l-2.687,0.229l-1.773-1.668L62.81,51.27l-5.04,0.479l-0.889-1.134l-2.911-0.184l-3.145,0.879
		L50.267,52.233z"/>
	<polygon id="SomeContinent" fill="#00A651" points="298.487,171.406 298.56,176.668 301.681,178.572 308.86,177.078 
		318.692,167.88 323.507,152.578 334.441,138.043 336.416,129.687 336.416,107.812 336.416,98 336.369,26.205 313.462,25.839 
		306.515,23.54 303.925,23.368 300.465,25.96 297.051,25.511 287.385,19.15 273.734,20.631 269.926,22.786 263.291,22.805 
		258.859,26.865 258.565,32.812 250.643,38.918 249.385,50.045 249.132,55.375 251.817,60.093 251.306,65.817 248.737,71.459 
		250.537,80.108 262.324,86.846 277.228,84.635 283.511,81.697 287.72,81.674 291.141,86.453 296.097,86.953 297.866,90.542 
		298.15,97.427 301.612,102.403 303.421,111.092 302.292,120.392 299.855,125.241 300.298,128.596 303.042,131.344 303.351,139.58 
		300.622,143.638 301.266,148.782 296.664,155.698 297.009,158.179 295.701,160.07 296.464,163.741 298.929,165.356 
		299.445,170.696 	"/>
	<polygon id="AirplaneShadow" fill-opacity="0.35" points="323.019,19.349 31.963,82.669 86.323,124.12 96.293,197.08 
		143.773,167.709 144.013,167.559 188.403,199.58 336.416,23.174 	"/>
</g>
<g id="MapShadows">
	<polygon fill-opacity="0.4" points="85.084,0 85.084,210.539 170.167,234.833 170.167,24.293 	"/>
	<polygon fill-opacity="0.4" points="255.25,0 255.25,210.539 340.333,234.833 340.333,24.293 	"/>
</g>
<g id="Airplane">
	<polygon fill="#E6E7E8" points="23.334,77.671 77.695,119.116 87.661,192.075 135.377,162.562 179.772,194.576 334.7,9.929 	"/>
	<polygon fill="#BCBEC0" points="110.312,144.984 87.661,192.075 135.377,162.562 	"/>
	<polygon fill="#F1F2F2" points="77.695,119.116 334.7,9.929 23.334,77.671 	"/>
	<polygon fill="#F1F2F2" points="110.312,144.984 334.7,9.929 179.772,194.576 	"/>
</g>
<g id="_x2E_NET">
	<g>
		<path fill="#FFFFFF" d="M195.375,198.085c0-1.559,0.422-2.737,1.267-3.536c0.845-0.798,2.074-1.197,3.688-1.197
			c1.558,0,2.764,0.409,3.617,1.226c0.854,0.816,1.281,1.986,1.281,3.508c0,1.467-0.432,2.622-1.295,3.467s-2.064,1.267-3.604,1.267
			c-1.577,0-2.797-0.413-3.66-1.239S195.375,199.589,195.375,198.085z"/>
		<path fill="#FFFFFF" d="M250.216,202.067h-11.092l-17.905-30.793h-0.253c0.356,5.438,0.534,9.317,0.534,11.638v19.155h-7.798
			v-40.705h11.008l17.876,30.487h0.197c-0.281-5.29-0.422-9.03-0.422-11.221v-19.267h7.854V202.067z"/>
		<path fill="#FFFFFF" d="M284.281,202.067h-23.704v-40.705h23.704v7.072h-14.978v8.937h13.936v7.072h-13.936v10.497h14.978V202.067
			z"/>
		<path fill="#FFFFFF" d="M308.745,202.067h-8.727v-33.521h-11.177v-7.184h31.08v7.184h-11.177V202.067z"/>
	</g>
</g>
</svg>
