<?xml version="1.0" encoding="utf-8"?>
<!-- Generator: Adobe Illustrator 21.1.0, SVG Export Plug-In . SVG Version: 6.00 Build 0)  -->
<svg version="1.1" id="Layer_1" xmlns="http://www.w3.org/2000/svg" xmlns:xlink="http://www.w3.org/1999/xlink" x="0px" y="0px"
	 viewBox="0 0 633.4 437" style="enable-background:new 0 0 633.4 437;" xml:space="preserve">
<style type="text/css">
	.st0{fill:#231F20;fill-opacity:0.4;}
	.st1{fill:#F2F2F2;}
	.st2{fill:#0087D0;}
	.st3{fill:#66CC66;}
	.st4{fill:#231F20;fill-opacity:0.35;}
	.st5{fill:#E6E7E8;}
	.st6{fill:#BBBDBF;}
	.st7{fill:#F1F1F2;}
	.st8{fill:#FFFFFF;}
</style>
<g>
	<polygon id="MapShadow" class="st0" points="626,172.6 626,437 471.3,416.9 316.7,437 316.6,437 162,416.9 7.4,437 7.4,172.6 
		162,142.1 316.6,172.6 471.3,142.1 	"/>
	<path id="MapBorders" class="st1" d="M316.7,437l-158.3-45.2L0,437V45.2L158.3,0l158.3,45.2 M316.7,437L475,391.8L633.4,437V45.2
		L475,0L316.7,45.2"/>
	<path id="Water" class="st2" d="M316.7,425.5l-158.3-42.8l-151,42.8V54.4l151-42.8l158.3,42.8 M316.7,425.5l158.4-42.8l151,42.8
		V54.4L475,11.5L316.7,54.4"/>
	<g id="Land">
		<path id="SomeContinent2" class="st3" d="M107,377.5l-26.5-19l1.1-16.9l-5.9-10.5l0.4-6.8l-1.7-2.2l3.7-19.1l-2.1-5.5l0.4-5.9
			l-2.7-2.2l0.4-6.5l3.6-3.3l3.7-19.7l-5.1-12.5l0.5-8.6l-7.2-3.4l-12.9-21.6l0.6-9.2l2.3-6.7l-1.6-4.3l3.6-27.1l9-9.2l2.3-11.1
			l-3.2-2.9l-8.3-1.7l-2.2-5.2l2.2-10.3l-7-11.7l0.4-5.6l-4.6-6.5l0.3-4.4l-1.5-6l-7-2.2L32.4,77l5.8-28.4l9.3-5.6l16.8-4.8
			l13.6-3.8l80.4-22.8l46.5,12.6l-39.7,3.1l-6.4,2.9l-6.5-1l-6.1,3.2l-2.3,7.3l-14,5.9l-6.4,2.9l-2.1,13.2l-10.7,6.8l-8.5-8.6
			l0.1-10.7l-3.1-4.9l-22.5-3.5l-12.9,7.2l-4.8,7.1l-1.6,14.8l4.7,9.5l9.5,2.4L70.3,91l-6.2,4.4l-0.4,6.2l8.1,9.7L71.2,122l8.4,13.9
			l5.9,0.4l10.2-8.6l14.6,0.6l11.1,6.6l14.8,6l8.4,13.9l12.5,3.8l5.7,8.7l7.3,2.2l6.2,15.2l-0.7,6.8l3.6,6.9l11.9,3.6l9,14.8
			l18.1,3.8l7.6,12.1l-0.5,8.6l3.6,7.1l-3.2,10.8l-6.3,6.7l-20.5,9.7l-3.8,6.3l-4.3,9.5l-11.6,7l-9.8-2.1l-10,6.2l-8.7-0.6l-7.5,4.9
			l-3.9,10.4l-4.7,2.4l-0.3,4.4l-4.5,2.4l-2.2,6.1l-8,6l-3.8,3L114,354l-6.5,4.3l-0.4,6.2l4.7,8.6L107,377.5z M89.3,78.1l14.4,10.3
			l9.1,1.3l0.2-3.1l-6.3-6.2l-6.3-2.9l-10.8-3.1L89.3,78.1z M93.6,97.2l5.7,3.1l4.9-0.7l3.2,0.4l1.3,3.3l9,2.1l3.6-1.2l2.6,0.3
			l2.3,4.2l7.6,0.5l5.5-4l-3.2-5l-6.2-0.8l-5,0.4l-3.3-3.1l-4.8-1.3l-9.4,0.9l-1.7-2.1l-5.4-0.3l-5.9,1.6L93.6,97.2z"/>
		<polygon id="SomeContinent" class="st3" points="555.5,319 555.6,328.8 561.5,332.3 574.8,329.6 593.1,312.4 602.1,284 
			622.4,256.9 626.1,241.4 626.1,200.6 626.1,182.4 626,54.4 605.2,48.4 599.2,46.7 597.9,48.3 583.4,48.1 570.5,43.8 565.6,43.5 
			559.2,48.3 552.8,47.5 534.8,35.6 509.4,38.4 502.4,42.4 490,42.4 481.8,50 481.2,61.1 466.5,72.4 464.1,93.1 463.7,103.1 
			468.7,111.8 467.7,122.5 462.9,133 466.3,149.1 488.2,161.6 515.9,157.5 527.6,152 535.5,152 541.8,160.9 551.1,161.8 
			554.4,168.5 554.9,181.3 561.3,190.6 564.7,206.8 562.6,224.1 558.1,233.1 558.9,239.3 564,244.4 564.6,259.8 559.5,267.3 
			560.7,276.9 552.1,289.8 552.8,294.4 550.3,297.9 551.7,304.7 556.3,307.7 557.3,317.7 		"/>
	</g>
	<polygon id="PlaneShadow" class="st4" points="601.2,36 59.5,153.9 160.7,231 179.2,366.8 267.6,312.1 268,311.8 350.6,371.4 
		626.1,43.1 	"/>
	<g id="MapShadows">
		<polygon class="st0" points="158.3,0 158.3,391.8 316.7,437 316.7,45.2 		"/>
		<polygon class="st0" points="475,0 475,391.8 633.4,437 633.4,45.2 		"/>
	</g>
	<g id="Plane">
		<polygon class="st5" points="43.4,144.6 144.6,221.7 163.1,357.5 251.9,302.5 334.6,362.1 622.9,18.5 		"/>
		<polygon class="st6" points="205.3,269.8 163.1,357.5 251.9,302.5 		"/>
		<polygon class="st7" points="144.6,221.7 622.9,18.5 43.4,144.6 		"/>
		<polygon class="st7" points="205.3,269.8 622.9,18.5 334.6,362.1 		"/>
	</g>
	<g id="_x2E_NET">
		<path class="st8" d="M363.6,368.7c0-2.9,0.8-5.1,2.4-6.6c1.6-1.5,3.9-2.2,6.9-2.2c2.9,0,5.1,0.8,6.7,2.3c1.6,1.5,2.4,3.7,2.4,6.5
			c0,2.7-0.8,4.9-2.4,6.5c-1.6,1.6-3.8,2.4-6.7,2.4c-2.9,0-5.2-0.8-6.8-2.3S363.6,371.5,363.6,368.7z"/>
		<path class="st8" d="M465.7,376.1H445l-33.3-57.3h-0.5c0.7,10.1,1,17.3,1,21.7v35.6h-14.5v-75.8h20.5l33.3,56.7h0.4
			c-0.5-9.8-0.8-16.8-0.8-20.9v-35.9h14.6V376.1z"/>
		<path class="st8" d="M529.1,376.1H485v-75.8h44.1v13.2h-27.9v16.6h25.9v13.2h-25.9v19.5h27.9V376.1z"/>
		<path class="st8" d="M574.6,376.1h-16.2v-62.4h-20.8v-13.4h57.8v13.4h-20.8V376.1z"/>
	</g>
</g>
</svg>
